<svg version="1.1" xmlns="http://www.w3.org/2000/svg" viewBox="0 0 1024 665" style="width: 100%; height: 100%;"><path d="M946.50,468.00 C946.02,469.79 947.74,468.71 949.06,469.02 L953.75,469.98 C954.44,471.14 957.26,471.15 959.08,470.91 C968.75,473.83 978.48,478.23 985.50,483.98 L987.60,485.60 L987.94,486.03 L990.75,488.13 C998.02,494.76 1006.60,503.46 1011.55,513.51 C1010.92,515.03 1012.62,515.59 1012.97,516.17 C1017.59,524.90 1021.38,536.78 1023.05,549.00 C1023.01,551.71 1023.23,552.50 1024.00,552.50 L1024.00,580.00 C1022.00,578.99 1023.54,584.59 1022.89,584.95 L1021.91,588.98 C1016.94,619.69 999.57,642.85 975.75,655.15 C968.23,658.67 956.96,663.93 947.99,663.76 C948.60,663.15 943.65,663.63 944.50,665.00 L922.56,665.00 C922.37,663.25 918.56,664.32 917.00,663.94 C880.54,658.19 855.81,633.94 846.11,600.04 C847.13,599.69 845.50,597.62 845.05,597.25 L844.55,594.75 C845.62,594.13 844.86,592.00 843.96,591.75 C842.81,587.22 842.04,581.93 841.96,576.00 L842.00,558.00 L842.09,557.75 L842.44,553.25 C842.62,539.99 848.32,524.87 853.44,514.56 L854.13,513.88 L854.35,513.25 L855.50,511.46 C855.68,511.23 855.32,510.82 855.50,510.59 C858.73,506.39 861.30,501.06 865.14,497.25 C875.40,485.35 889.66,475.72 907.75,470.34 L911.25,470.12 C920.25,466.65 934.45,468.42 946.50,468.00 Z M874.92,530.25 L873.95,533.10 C873.03,536.53 871.12,540.63 871.00,545.50 C870.23,545.50 870.00,546.06 870.00,548.00 L869.91,548.75 L868.93,553.99 L869.00,559.44 C867.95,558.72 869.05,560.78 868.00,560.06 C868.30,565.92 867.23,574.73 868.91,579.25 C871.28,594.30 876.24,610.41 884.82,619.75 C886.92,622.87 890.93,625.77 892.75,627.88 L893.86,629.03 L897.47,631.58 L899.00,632.49 L908.75,637.15 L910.96,638.10 C912.22,637.99 916.00,637.55 915.25,639.10 L919.06,640.01 L922.75,640.58 L926.00,641.03 L926.50,641.16 L939.99,641.17 L944.25,640.48 L946.93,640.04 L950.75,639.12 C963.75,634.91 976.14,627.25 982.97,616.59 C983.07,616.43 985.18,616.53 984.47,614.48 L985.15,613.75 L985.50,613.00 L985.88,612.12 L986.25,611.69 C990.34,604.89 993.14,595.80 995.06,587.70 C995.76,586.89 996.16,584.74 996.00,582.94 L996.00,576.50 C996.79,576.50 997.00,574.92 997.00,569.00 L997.00,564.00 C997.00,560.12 996.77,559.00 996.00,559.00 C994.98,524.84 977.43,500.14 947.20,492.85 L942.75,492.53 L937.25,491.81 L926.50,491.85 C899.49,494.56 883.59,509.88 874.92,530.25 Z" fill="#CB5435" fill-rule="nonzero"/><path d="M842.00,558.00 L841.96,576.00 C841.19,576.00 841.00,572.39 841.00,567.00 C841.00,561.33 841.19,558.00 842.00,558.00 Z" fill="#3B3134" fill-rule="nonzero"/><path d="M869.00,559.44 L868.91,579.25 C867.23,574.73 868.30,565.92 868.00,560.06 C869.05,560.78 867.95,558.72 869.00,559.44 Z" fill="#864A37" fill-rule="nonzero"/><path d="M997.00,569.00 C997.00,574.92 996.79,576.50 996.00,576.50 C996.00,570.58 996.21,569.00 997.00,569.00 Z" fill="#3B3134" fill-rule="nonzero"/><path d="M939.99,641.17 L926.50,641.16 L939.99,641.17 Z" fill="#864A37" fill-rule="nonzero"/><path d="M926.50,491.85 L937.25,491.81 L926.50,491.85 Z" fill="#864A37" fill-rule="nonzero"/><path d="M997.00,564.00 C996.23,564.00 996.00,562.88 996.00,559.00 C996.77,559.00 997.00,560.12 997.00,564.00 Z" fill="#3B3134" fill-rule="nonzero"/><path d="M959.08,470.91 C957.26,471.15 954.44,471.14 953.75,469.98 C957.39,470.00 958.59,470.21 959.08,470.91 Z" fill="#864A37" fill-rule="nonzero"/><path d="M944.25,640.48 L939.99,641.17 C940.00,640.13 940.63,640.02 944.25,640.48 Z" fill="#3B3134" fill-rule="nonzero"/><path d="M869.91,548.75 C869.98,552.93 869.78,554.00 868.93,553.99 L869.91,548.75 Z" fill="#864A37" fill-rule="nonzero"/><path d="M996.00,582.94 C996.16,584.74 995.76,586.89 995.06,587.70 C995.09,586.23 994.46,583.01 996.00,582.94 Z" fill="#864A37" fill-rule="nonzero"/><path d="M1022.89,584.95 C1022.98,588.15 1022.77,589.00 1021.91,588.98 L1022.89,584.95 Z" fill="#864A37" fill-rule="nonzero"/><path d="M897.47,631.58 L893.86,629.03 C895.75,628.62 896.93,630.61 897.47,631.58 Z" fill="#864A37" fill-rule="nonzero"/><path d="M846.11,600.04 C845.25,600.01 845.01,599.38 845.05,597.25 C845.50,597.62 847.13,599.69 846.11,600.04 Z" fill="#3B3134" fill-rule="nonzero"/><path d="M926.00,641.03 L922.75,640.58 C923.13,640.33 926.58,638.96 926.00,641.03 Z" fill="#3B3134" fill-rule="nonzero"/><path d="M1012.97,516.17 C1012.62,515.59 1010.92,515.03 1011.55,513.51 C1013.18,514.52 1013.12,513.26 1012.97,516.17 Z" fill="#3B3134" fill-rule="nonzero"/><path d="M871.00,545.50 C871.00,547.44 870.77,548.00 870.00,548.00 C870.00,546.06 870.23,545.50 871.00,545.50 Z" fill="#3B3134" fill-rule="nonzero"/><path d="M950.75,639.12 L946.93,640.04 C946.91,638.71 949.44,638.89 950.75,639.12 Z" fill="#864A37" fill-rule="nonzero"/><path d="M949.06,469.02 C947.74,468.71 946.02,469.79 946.50,468.00 C948.00,468.00 948.58,468.23 949.06,469.02 Z" fill="#3B3134" fill-rule="nonzero"/><path d="M990.75,488.13 L987.94,486.03 C989.68,485.60 990.32,486.97 990.75,488.13 Z" fill="#864A37" fill-rule="nonzero"/><path d="M947.20,492.85 L942.75,492.53 L947.20,492.85 Z" fill="#864A37" fill-rule="nonzero"/><path d="M844.55,594.75 L843.96,591.75 C844.86,592.00 845.62,594.13 844.55,594.75 Z" fill="#864A37" fill-rule="nonzero"/><path d="M984.47,614.48 C985.18,616.53 983.07,616.43 982.97,616.59 C982.63,614.59 983.66,615.15 984.47,614.48 Z" fill="#3B3134" fill-rule="nonzero"/><path d="M919.06,640.01 L915.25,639.10 C917.72,639.02 918.58,639.23 919.06,640.01 Z" fill="#864A37" fill-rule="nonzero"/><path d="M911.25,470.12 L907.75,470.34 L911.25,470.12 Z" fill="#864A37" fill-rule="nonzero"/><path d="M842.44,553.25 L842.09,557.75 L842.44,553.25 Z" fill="#864A37" fill-rule="nonzero"/><path d="M874.92,530.25 C874.98,531.95 874.76,532.59 873.95,533.10 L874.92,530.25 Z" fill="#864A37" fill-rule="nonzero"/><path d="M910.96,638.10 L908.75,637.15 C909.66,637.05 911.62,636.34 910.96,638.10 Z" fill="#864A37" fill-rule="nonzero"/><path d="M987.60,485.60 L985.50,483.98 L987.60,485.60 Z" fill="#864A37" fill-rule="nonzero"/><path d="M855.50,511.46 L854.35,513.25 L855.50,511.46 Z" fill="#864A37" fill-rule="nonzero"/><path d="M899.00,632.49 L897.47,631.58 C900.05,631.02 898.58,632.28 899.00,632.49 Z" fill="#864A37" fill-rule="nonzero"/><path d="M893.86,629.03 L892.75,627.88 L893.86,629.03 Z" fill="#864A37" fill-rule="nonzero"/><path d="M854.35,513.25 L854.13,513.88 L854.35,513.25 Z" fill="#864A37" fill-rule="nonzero"/><path d="M985.88,612.12 L985.50,613.00 L985.88,612.12 Z" fill="#864A37" fill-rule="nonzero"/><path d="M985.50,613.00 L985.15,613.75 L985.50,613.00 Z" fill="#864A37" fill-rule="nonzero"/><path d="M987.94,486.03 L987.60,485.60 L987.94,486.03 Z" fill="#864A37" fill-rule="nonzero"/><path d="M854.13,513.88 L853.44,514.56 L854.13,513.88 Z" fill="#864A37" fill-rule="nonzero"/><path d="M986.25,611.69 L985.88,612.12 L986.25,611.69 Z" fill="#864A37" fill-rule="nonzero"/><path d="M471.44,233.00 C501.20,235.45 525.91,254.02 538.00,274.24 C557.19,306.35 558.84,352.94 539.41,387.00 C523.55,414.79 489.01,437.56 442.00,428.00 C336.36,406.52 349.16,222.94 471.44,233.00 Z M510.00,277.49 C491.22,254.66 450.78,247.95 423.50,268.00 C397.48,287.13 388.15,339.27 406.25,374.71 C426.06,413.50 483.97,418.96 511.75,383.73 C532.66,357.21 530.47,302.37 510.00,277.49 Z" fill="#3B3134" fill-rule="nonzero"/><g><path d="M653.50,471.82 L656.00,472.00 L662.50,472.00 C662.50,472.77 663.07,472.99 665.01,472.94 L669.25,474.08 L674.16,475.14 C676.05,475.71 681.26,476.97 682.75,478.10 L684.99,479.07 C693.40,481.74 700.33,487.04 706.75,492.13 L709.25,494.53 L716.04,501.96 L718.00,504.55 L718.95,504.55 C729.40,519.16 737.69,537.13 738.03,562.00 L738.00,572.00 C736.32,615.90 712.47,644.89 678.75,656.59 C674.86,657.65 669.32,660.20 663.00,660.00 C661.11,660.00 660.42,660.23 659.94,661.00 L656.00,661.00 L578.00,661.00 L578.00,566.30 L578.00,471.61 L653.50,471.82 Z M647.00,494.96 L647.00,494.00 L604.20,494.00 L603.00,495.20 C603.41,541.85 602.18,592.73 603.62,639.00 L612.50,639.00 L612.50,638.05 L659.28,637.72 L663.22,636.54 C685.89,630.39 701.47,614.40 708.03,592.25 L709.07,589.02 L709.10,588.25 L710.10,583.91 L710.08,583.75 C710.93,582.13 711.00,578.47 711.11,576.02 C712.68,571.28 711.89,561.93 711.11,556.99 C710.50,556.43 711.94,554.47 710.03,555.00 C710.64,550.80 708.48,549.01 708.95,545.00 C708.99,543.50 708.80,542.92 708.10,542.44 C701.66,517.76 685.51,500.67 659.75,496.01 C659.28,495.14 656.08,494.44 655.25,495.40 L647.00,494.96 Z" fill="#CB5435" fill-rule="nonzero"/><path d="M653.50,471.00 L653.50,471.82 L578.00,471.61 L578.00,566.30 L578.00,661.00 L656.00,661.00 C656.00,661.83 642.50,662.00 616.50,662.00 L577.00,662.00 L577.00,566.50 L577.00,471.00 L653.50,471.00 Z" fill="#864A37" fill-rule="nonzero"/><path d="M612.50,638.05 L612.50,639.00 L603.62,639.00 C602.18,592.73 603.41,541.85 603.00,495.20 L604.20,494.00 L647.00,494.00 L647.00,494.96 L604.00,494.96 L604.00,566.51 L604.00,638.05 L612.50,638.05 Z" fill="#3B3134" fill-rule="nonzero"/><path d="M711.11,576.02 L711.11,556.99 C711.89,561.93 712.68,571.28 711.11,576.02 Z" fill="#864A37" fill-rule="nonzero"/><path d="M738.00,572.00 L738.03,562.00 C738.80,562.00 739.00,564.12 739.00,567.00 C739.00,570.00 738.80,572.00 738.00,572.00 Z" fill="#3B3134" fill-rule="nonzero"/><path d="M711.11,576.02 C711.00,578.47 710.93,582.13 710.08,583.75 C710.01,577.35 710.19,576.00 711.11,576.02 Z" fill="#864A37" fill-rule="nonzero"/><path d="M659.75,496.01 L655.25,495.40 C656.08,494.44 659.28,495.14 659.75,496.01 Z" fill="#864A37" fill-rule="nonzero"/><path d="M674.16,475.14 L669.25,474.08 C670.89,474.08 673.97,473.42 674.16,475.14 Z" fill="#864A37" fill-rule="nonzero"/><path d="M710.10,583.91 L709.10,588.25 C708.99,586.81 708.54,583.93 710.10,583.91 Z" fill="#864A37" fill-rule="nonzero"/><path d="M663.00,660.00 C663.00,660.77 662.31,661.00 659.94,661.00 C660.42,660.23 661.11,660.00 663.00,660.00 Z" fill="#3B3134" fill-rule="nonzero"/><path d="M656.00,472.00 L653.50,471.82 L653.50,471.00 C655.44,471.00 656.00,471.23 656.00,472.00 Z" fill="#3B3134" fill-rule="nonzero"/><path d="M665.01,472.94 C663.07,472.99 662.50,472.77 662.50,472.00 C663.74,472.29 665.47,471.23 665.01,472.94 Z" fill="#3B3134" fill-rule="nonzero"/><path d="M708.95,545.00 C707.30,545.65 708.16,543.17 708.10,542.44 C708.80,542.92 708.99,543.50 708.95,545.00 Z" fill="#3B3134" fill-rule="nonzero"/><path d="M711.11,556.99 C709.16,557.40 710.27,556.17 710.03,555.00 C711.94,554.47 710.50,556.43 711.11,556.99 Z" fill="#3B3134" fill-rule="nonzero"/><path d="M684.99,479.07 L682.75,478.10 C684.49,478.02 685.00,478.24 684.99,479.07 Z" fill="#864A37" fill-rule="nonzero"/></g><path d="M586.00,236.00 C641.37,237.87 692.51,226.54 716.00,261.69 C737.03,297.47 719.86,334.56 687.75,346.01 C667.70,353.03 637.87,350.61 611.00,351.00 L611.00,427.00 L586.00,427.00 L586.00,236.00 Z M611.00,259.00 L611.00,326.80 C611.00,326.80 612.20,328.00 612.20,328.00 C612.20,328.00 657.45,328.32 661.00,328.00 C710.01,323.61 708.09,273.08 677.47,262.00 C660.75,255.95 632.67,260.38 611.00,259.00 Z" fill="#3B3134" fill-rule="nonzero"/><path d="M880.25,236.04 L905.57,236.00 C913.43,254.41 919.98,275.61 927.00,294.94 C940.52,332.18 954.93,370.46 968.25,407.99 C969.86,412.53 972.26,419.91 974.25,424.99 C974.25,424.99 975.00,425.00 975.00,425.00 C975.00,425.00 975.00,427.00 975.00,427.00 L948.08,427.00 C945.64,423.14 930.54,376.54 930.00,376.00 L853.00,376.00 C852.08,381.62 835.42,426.76 834.92,427.00 L811.70,427.00 C808.70,425.78 813.43,418.14 814.00,416.47 C821.06,395.55 829.48,373.87 836.75,353.99 C850.29,316.95 863.69,278.07 877.75,241.99 C878.14,240.99 879.51,236.36 880.25,236.04 Z M892.00,269.00 C885.68,284.85 880.67,301.46 875.00,317.44 C871.14,328.31 865.41,339.93 863.00,351.92 C862.95,352.15 860.55,351.40 863.12,354.00 C863.12,354.00 920.08,354.15 920.57,354.00 C920.57,354.00 922.24,352.33 922.24,352.33 C922.24,352.33 907.34,311.31 906.00,307.44 C901.69,295.00 897.91,281.30 893.00,269.00 C893.00,269.00 892.00,269.00 892.00,269.00 Z" fill="#3B3134" fill-rule="nonzero"/><g><path d="M106.25,471.03 L108.97,472.09 C116.12,473.68 123.75,478.42 127.89,482.25 L128.50,483.00 L129.12,483.63 L129.75,483.93 L132.10,485.75 C139.76,492.63 146.44,504.16 149.02,516.94 C149.00,519.70 149.22,520.50 150.00,520.50 L149.92,522.25 L149.25,525.04 L124.12,524.75 C120.08,507.42 111.44,494.11 92.56,492.00 C92.08,491.23 91.50,491.01 89.96,491.05 L82.25,490.48 C80.37,489.53 74.55,489.80 73.25,490.97 C56.60,492.20 42.32,500.31 40.57,516.25 C39.85,517.60 39.33,523.15 41.02,523.72 C40.72,528.87 44.24,532.81 46.75,536.16 L48.67,538.17 C51.01,539.77 56.55,542.58 59.25,544.07 L65.25,545.98 L72.25,548.03 L75.55,549.05 C77.74,549.32 82.63,550.26 83.75,550.96 L87.07,552.10 L88.25,552.03 C89.89,552.97 92.67,553.84 95.03,553.95 L99.25,555.01 L101.97,556.09 L102.25,556.01 C102.86,556.78 104.49,557.19 106.06,557.00 L106.25,557.07 L108.97,558.09 C111.02,557.23 112.27,559.33 113.25,559.12 L115.97,560.09 L116.25,560.07 L118.97,561.09 C123.50,561.89 128.58,565.42 131.75,566.96 L138.25,571.68 C147.53,578.04 155.17,589.78 155.00,607.00 L155.04,610.00 L153.99,618.25 C153.20,620.77 153.13,621.50 153.67,621.51 C146.42,644.54 128.73,658.20 103.00,663.00 C101.92,663.30 100.60,662.19 101.00,664.00 L98.00,664.00 C95.29,664.00 94.50,664.23 94.50,665.00 L70.25,664.91 L67.03,663.93 C39.67,660.85 18.23,644.65 10.09,621.11 L9.05,618.25 L9.02,618.06 L8.06,614.75 L8.00,614.06 C8.13,612.37 7.86,609.31 7.11,609.06 C5.21,609.01 6.19,604.47 6.11,603.02 L6.57,600.50 L31.27,600.27 L32.00,601.00 L32.00,602.00 C32.00,604.71 32.20,605.51 32.89,605.53 C33.79,612.20 36.58,617.46 39.25,622.74 L39.63,623.13 L40.00,624.00 L40.38,624.88 L41.00,625.50 C47.32,632.92 57.09,638.39 67.25,641.07 C67.99,641.29 71.05,642.75 71.75,641.48 L73.25,642.08 C77.02,643.47 86.97,643.51 90.75,642.07 L94.00,642.03 L97.25,641.58 L98.93,641.05 C100.49,641.01 101.08,640.79 101.55,640.05 C101.74,640.46 104.20,639.17 103.26,639.60 C109.65,638.53 113.96,635.10 118.46,632.54 L119.05,632.05 L122.55,628.55 L122.75,628.23 C125.28,625.00 127.39,620.30 128.56,616.75 L129.08,612.89 L128.60,607.75 C128.87,607.74 129.84,603.72 127.97,604.50 C123.66,583.05 95.17,582.74 76.75,575.89 L73.39,574.94 C65.38,573.24 55.75,570.11 48.09,568.10 C48.05,568.07 46.44,565.20 45.75,566.95 C27.80,558.25 12.33,544.75 14.00,516.50 C15.95,517.14 14.51,514.51 15.10,513.93 L15.95,508.98 C17.26,502.28 20.26,496.49 24.00,492.00 C24.92,491.68 25.78,490.72 25.52,489.55 C29.23,486.37 33.36,481.04 37.25,479.16 C44.51,474.42 53.89,470.73 63.72,469.18 C62.34,469.53 68.06,469.44 67.08,468.00 L95.00,468.00 L106.25,471.03 Z" fill="#CB5435" fill-rule="nonzero"/><path d="M149.92,522.25 L149.92,526.00 L137.02,526.00 C127.04,526.00 124.12,525.86 124.12,524.75 L149.25,525.04 L149.92,522.25 Z" fill="#864A37" fill-rule="nonzero"/><path d="M90.75,642.07 C86.97,643.51 77.02,643.47 73.25,642.08 L90.75,642.07 Z" fill="#864A37" fill-rule="nonzero"/><g><path d="M6.00,599.99 L6.11,603.02 C5.25,603.02 5.00,602.34 5.00,601.51 C5.00,600.67 5.23,599.99 6.00,599.99 Z" fill="#3B3134" fill-rule="nonzero"/><path d="M31.27,600.27 L6.57,600.50 L6.11,603.02 L6.00,599.99 L31.27,600.27 Z" fill="#864A37" fill-rule="nonzero"/></g><path d="M82.25,490.48 L73.25,490.97 C74.55,489.80 80.37,489.53 82.25,490.48 Z" fill="#3B3134" fill-rule="nonzero"/><path d="M138.25,571.68 L131.75,566.96 C134.55,567.62 137.10,569.22 138.25,571.68 Z" fill="#864A37" fill-rule="nonzero"/><path d="M41.02,523.72 C39.33,523.15 39.85,517.60 40.57,516.25 L41.02,523.72 Z" fill="#3B3134" fill-rule="nonzero"/><path d="M95.03,553.95 C92.67,553.84 89.89,552.97 88.25,552.03 C91.16,552.03 92.00,552.24 92.00,552.51 C92.00,552.78 92.55,553.00 93.22,553.00 C93.90,553.00 94.58,553.21 95.03,553.95 Z" fill="#864A37" fill-rule="nonzero"/><path d="M65.25,545.98 L59.25,544.07 C59.26,544.07 62.56,543.92 63.00,544.07 C62.38,545.57 65.36,544.73 65.25,545.98 Z" fill="#864A37" fill-rule="nonzero"/><path d="M8.00,614.06 C6.43,614.06 7.08,610.19 7.11,609.06 C7.86,609.31 8.13,612.37 8.00,614.06 Z" fill="#864A37" fill-rule="nonzero"/><path d="M67.08,468.00 C68.06,469.44 62.34,469.53 63.72,469.18 C63.19,467.64 65.69,468.02 67.08,468.00 Z" fill="#3B3134" fill-rule="nonzero"/><path d="M15.95,508.98 L15.10,513.93 C15.02,510.11 15.21,509.00 15.95,508.98 Z" fill="#864A37" fill-rule="nonzero"/><path d="M32.89,605.53 C32.20,605.51 32.00,604.71 32.00,602.00 C32.77,602.00 32.98,602.79 32.89,605.53 Z" fill="#3B3134" fill-rule="nonzero"/><path d="M150.00,520.50 C149.22,520.50 149.00,519.70 149.02,516.94 C149.78,517.42 150.00,518.22 150.00,520.50 Z" fill="#3B3134" fill-rule="nonzero"/><path d="M128.60,607.75 L127.97,604.50 C129.84,603.72 128.87,607.74 128.60,607.75 Z" fill="#3B3134" fill-rule="nonzero"/><path d="M155.04,610.00 L155.00,607.00 C155.78,607.00 156.00,607.68 156.00,608.50 C156.00,609.33 155.78,610.00 155.04,610.00 Z" fill="#3B3134" fill-rule="nonzero"/><path d="M129.08,612.89 L128.56,616.75 C128.58,616.44 126.82,613.53 129.08,612.89 Z" fill="#3B3134" fill-rule="nonzero"/><path d="M71.75,641.48 C71.05,642.75 67.99,641.29 67.25,641.07 L71.75,641.48 Z" fill="#864A37" fill-rule="nonzero"/><path d="M106.06,557.00 C104.49,557.19 102.86,556.78 102.25,556.01 C104.72,556.00 105.58,556.23 106.06,557.00 Z" fill="#864A37" fill-rule="nonzero"/><path d="M97.25,641.58 L94.00,642.03 C93.42,639.96 96.87,641.33 97.25,641.58 Z" fill="#3B3134" fill-rule="nonzero"/><path d="M25.52,489.55 C25.78,490.72 24.92,491.68 24.00,492.00 C23.70,490.52 24.81,489.69 25.52,489.55 Z" fill="#3B3134" fill-rule="nonzero"/><path d="M15.10,513.93 C14.51,514.51 15.95,517.14 14.00,516.50 C14.00,515.00 14.25,514.42 15.10,513.93 Z" fill="#3B3134" fill-rule="nonzero"/><path d="M76.75,575.89 C75.47,576.19 73.42,576.13 73.39,574.94 L76.75,575.89 Z" fill="#864A37" fill-rule="nonzero"/><path d="M132.10,485.75 L129.75,483.93 C132.36,483.45 131.86,485.59 132.10,485.75 Z" fill="#864A37" fill-rule="nonzero"/><path d="M92.56,492.00 C91.01,492.00 90.43,491.79 89.96,491.05 C91.50,491.01 92.08,491.23 92.56,492.00 Z" fill="#3B3134" fill-rule="nonzero"/><path d="M108.97,558.09 L106.25,557.07 C108.38,557.02 108.99,557.24 108.97,558.09 Z" fill="#864A37" fill-rule="nonzero"/><path d="M115.97,560.09 L113.25,559.12 C115.38,559.03 115.99,559.24 115.97,560.09 Z" fill="#864A37" fill-rule="nonzero"/><path d="M118.97,561.09 L116.25,560.07 C118.38,560.02 118.99,560.24 118.97,561.09 Z" fill="#864A37" fill-rule="nonzero"/><path d="M101.55,640.05 C101.08,640.79 100.49,641.01 98.93,641.05 C99.42,640.24 100.01,640.01 101.55,640.05 Z" fill="#3B3134" fill-rule="nonzero"/><path d="M103.00,663.00 C103.42,664.84 102.00,663.68 101.00,664.00 C100.60,662.19 101.92,663.30 103.00,663.00 Z" fill="#864A37" fill-rule="nonzero"/><path d="M10.09,621.11 C10.06,621.04 8.42,620.79 9.05,618.25 L10.09,621.11 Z" fill="#864A37" fill-rule="nonzero"/><path d="M98.00,664.00 L98.00,665.00 L94.50,665.00 C94.50,664.23 95.29,664.00 98.00,664.00 Z" fill="#864A37" fill-rule="nonzero"/><path d="M70.25,664.91 L67.00,665.00 L67.03,663.93 L70.25,664.91 Z" fill="#864A37" fill-rule="nonzero"/></g><path d="M122.55,628.55 L119.05,632.05 L122.55,628.55 Z" fill="#864A37" fill-rule="nonzero"/><path d="M48.67,538.17 L46.75,536.16 L48.67,538.17 Z" fill="#3B3134" fill-rule="nonzero"/><path d="M75.55,549.05 L72.25,548.03 C74.34,548.01 75.08,548.24 75.55,549.05 Z" fill="#864A37" fill-rule="nonzero"/><path d="M87.07,552.10 L83.75,550.96 C85.84,550.99 86.58,551.25 87.07,552.10 Z" fill="#864A37" fill-rule="nonzero"/><path d="M108.97,472.09 L106.25,471.03 C108.38,471.01 108.99,471.24 108.97,472.09 Z" fill="#864A37" fill-rule="nonzero"/><path d="M101.97,556.09 L99.25,555.01 C101.38,555.00 101.99,555.24 101.97,556.09 Z" fill="#864A37" fill-rule="nonzero"/><path d="M48.09,568.10 L45.75,566.95 C46.44,565.20 48.05,568.07 48.09,568.10 Z" fill="#3B3134" fill-rule="nonzero"/><path d="M153.99,618.25 L153.67,621.51 C153.13,621.50 153.20,620.77 153.99,618.25 Z" fill="#864A37" fill-rule="nonzero"/><path d="M9.02,618.06 C8.23,617.58 8.01,616.84 8.06,614.75 L9.02,618.06 Z" fill="#864A37" fill-rule="nonzero"/><path d="M129.75,483.93 L129.12,483.63 L129.75,483.93 Z" fill="#864A37" fill-rule="nonzero"/><path d="M40.00,624.00 L39.63,623.13 L40.00,624.00 Z" fill="#864A37" fill-rule="nonzero"/><path d="M40.38,624.88 L40.00,624.00 L40.38,624.88 Z" fill="#864A37" fill-rule="nonzero"/><path d="M128.50,483.00 L127.89,482.25 L128.50,483.00 Z" fill="#864A37" fill-rule="nonzero"/><path d="M129.12,483.63 L128.50,483.00 L129.12,483.63 Z" fill="#864A37" fill-rule="nonzero"/><path d="M32.00,601.00 L31.27,600.27 L32.00,601.00 Z" fill="#864A37" fill-rule="nonzero"/><path d="M39.63,623.13 L39.25,622.74 L39.63,623.13 Z" fill="#864A37" fill-rule="nonzero"/><path d="M41.00,625.50 L40.38,624.88 L41.00,625.50 Z" fill="#864A37" fill-rule="nonzero"/><path d="M122.75,628.23 L122.55,628.55 L122.75,628.23 Z" fill="#864A37" fill-rule="nonzero"/><path d="M119.05,632.05 L118.46,632.54 L119.05,632.05 Z" fill="#864A37" fill-rule="nonzero"/><g><path d="M227.25,81.10 L227.25,81.04 C229.16,81.75 249.46,81.90 275.93,81.85 L322.18,81.75 L322.18,79.43 L322.00,79.06 C322.83,78.55 323.00,64.99 323.00,39.71 L323.00,0.98 L335.38,1.12 L347.75,1.25 L347.88,95.63 L348.00,190.02 L335.38,189.88 L322.75,189.75 L322.96,147.89 C323.13,114.81 323.05,105.94 321.93,105.25 L226.51,104.99 L225.91,105.54 C223.79,131.03 225.62,163.98 225.00,190.00 L200.00,190.00 L200.00,0.98 L225.06,1.04 C225.80,1.77 223.61,78.92 225.61,81.42 C225.28,81.69 227.85,81.50 227.25,81.10 Z" fill="#CB5435" fill-rule="nonzero"/><path d="M225.91,105.54 L225.91,191.00 L212.95,191.00 C204.65,191.00 200.00,190.82 200.00,190.00 L225.00,190.00 C225.62,163.98 223.79,131.03 225.91,105.54 Z" fill="#864A37" fill-rule="nonzero"/><path d="M227.25,81.04 C315.95,81.00 320.95,80.92 322.18,79.43 L322.18,81.75 L275.93,81.85 C249.46,81.90 229.16,81.75 227.25,81.04 Z" fill="#864A37" fill-rule="nonzero"/><path d="M322.00,79.06 L322.00,-0.00 L347.75,0.02 C348.93,1.28 349.04,19.15 349.02,96.21 L349.00,191.00 L335.47,191.00 L321.93,191.00 L321.93,105.25 C323.05,105.94 323.13,114.81 322.96,147.89 L322.75,189.75 L335.38,189.88 L348.00,190.02 L347.88,95.63 L347.75,1.25 L335.38,1.12 L323.00,0.98 L323.00,39.71 C323.00,64.99 322.83,78.55 322.00,79.06 Z" fill="#864A37" fill-rule="nonzero"/><path d="M200.00,0.98 L200.00,-0.00 L226.00,-0.00 C226.00,71.14 226.14,79.94 227.25,81.10 C227.85,81.50 225.28,81.69 225.61,81.42 C223.61,78.92 225.80,1.77 225.06,1.04 L200.00,0.98 Z" fill="#864A37" fill-rule="nonzero"/></g><path d="M226.51,104.99 L225.91,105.54 L226.51,104.99 Z" fill="#864A37" fill-rule="nonzero"/><g><path d="M394.00,470.98 C394.00,571.08 394.17,591.50 395.00,591.50 L395.00,597.00 C395.30,598.08 394.19,599.40 396.00,599.00 L396.00,601.94 C395.83,603.51 396.18,605.15 397.03,605.75 C398.83,610.60 401.36,617.48 405.00,621.50 L405.15,621.91 C406.64,623.85 410.23,627.79 411.75,628.75 C412.23,630.94 414.28,631.56 416.25,632.07 C419.67,633.96 425.43,637.01 430.44,638.11 C430.92,638.80 431.51,639.00 433.06,639.00 L437.50,639.00 C436.84,640.95 439.55,639.51 439.98,640.10 C443.99,640.96 450.78,641.30 454.75,640.13 C477.19,638.35 492.99,627.23 499.00,608.56 C499.77,608.08 499.98,607.50 499.93,605.98 L501.06,602.06 C501.79,601.58 502.00,600.67 502.00,598.00 L502.00,593.00 C502.77,593.00 503.00,592.10 503.00,589.00 L503.00,471.97 L528.31,472.25 L527.98,595.50 L528.00,599.00 C528.09,605.91 526.42,609.67 525.01,613.80 C523.82,613.38 523.55,618.47 523.86,617.37 C515.17,640.96 497.26,657.67 470.01,663.04 L467.25,663.51 C464.73,663.97 464.00,664.31 464.00,665.00 L435.00,665.00 C435.40,663.19 434.08,664.30 433.00,664.00 C400.02,659.83 378.20,638.79 370.51,608.75 C371.66,607.92 370.56,604.51 369.93,603.75 C365.59,564.66 369.17,514.43 368.00,471.08 L394.00,470.98 Z" fill="#CB5435" fill-rule="nonzero"/><g><path d="M503.00,471.97 C503.00,471.18 507.96,471.00 516.00,471.00 L529.00,471.00 L529.00,595.50 L527.98,595.50 L528.31,472.25 L503.00,471.97 Z" fill="#864A37" fill-rule="nonzero"/><path d="M529.00,595.50 C529.00,598.21 528.77,599.00 528.00,599.00 L527.98,595.50 L529.00,595.50 Z" fill="#3B3134" fill-rule="nonzero"/></g><path d="M395.00,591.50 C394.17,591.50 394.00,571.08 394.00,470.98 C394.83,471.00 395.00,491.42 395.00,591.50 Z" fill="#3B3134" fill-rule="nonzero"/><path d="M454.75,640.13 C450.78,641.30 443.99,640.96 439.98,640.10 L454.75,640.13 Z" fill="#864A37" fill-rule="nonzero"/><path d="M416.25,632.07 C414.28,631.56 412.23,630.94 411.75,628.75 L416.25,632.07 Z" fill="#864A37" fill-rule="nonzero"/><path d="M503.00,589.00 C503.00,592.10 502.77,593.00 502.00,593.00 C502.00,589.90 502.23,589.00 503.00,589.00 Z" fill="#3B3134" fill-rule="nonzero"/><path d="M502.00,598.00 C502.00,600.67 501.79,601.58 501.06,602.06 C501.01,598.91 501.23,598.00 502.00,598.00 Z" fill="#864A37" fill-rule="nonzero"/><path d="M370.51,608.75 L369.93,603.75 C370.56,604.51 371.66,607.92 370.51,608.75 Z" fill="#864A37" fill-rule="nonzero"/><path d="M525.01,613.80 C525.00,616.22 524.74,617.02 523.86,617.37 C523.55,618.47 523.82,613.38 525.01,613.80 Z" fill="#3B3134" fill-rule="nonzero"/><path d="M397.03,605.75 C396.18,605.15 395.83,603.51 396.00,601.94 C396.77,602.42 397.01,603.28 397.03,605.75 Z" fill="#864A37" fill-rule="nonzero"/><path d="M439.98,640.10 C439.55,639.51 436.84,640.95 437.50,639.00 C439.44,639.00 440.00,639.25 439.98,640.10 Z" fill="#3B3134" fill-rule="nonzero"/><path d="M499.93,605.98 C499.98,607.50 499.77,608.08 499.00,608.56 C499.00,606.58 499.21,605.99 499.93,605.98 Z" fill="#3B3134" fill-rule="nonzero"/><path d="M470.01,663.04 C470.57,665.11 467.62,663.48 467.25,663.51 L470.01,663.04 Z" fill="#864A37" fill-rule="nonzero"/><path d="M396.00,599.00 C394.19,599.40 395.30,598.08 395.00,597.00 C396.84,596.58 395.68,598.00 396.00,599.00 Z" fill="#3B3134" fill-rule="nonzero"/><path d="M433.06,639.00 C431.51,639.00 430.92,638.80 430.44,638.11 C431.99,638.02 432.58,638.23 433.06,639.00 Z" fill="#864A37" fill-rule="nonzero"/><path d="M435.00,665.00 L433.00,665.00 L433.00,664.00 C434.08,664.30 435.40,663.19 435.00,665.00 Z" fill="#864A37" fill-rule="nonzero"/></g><path d="M9.00,235.98 L33.75,236.25 C36.05,280.44 29.87,335.39 38.00,374.24 C51.87,415.93 124.12,417.40 140.01,375.25 C140.04,375.16 140.00,373.56 140.00,373.56 C140.00,373.56 141.00,372.94 141.00,372.94 C147.48,333.33 142.37,280.89 144.00,236.00 C148.83,236.62 169.12,234.60 170.00,237.43 C165.64,321.82 189.26,400.33 121.97,425.00 C105.34,431.10 77.09,431.72 59.56,426.00 C-11.33,402.91 13.46,321.91 9.00,235.98 Z" fill="#3B3134" fill-rule="nonzero"/><path d="M193.00,236.00 L362.75,236.25 L363.02,259.00 L291.00,259.00 L291.00,427.00 C286.17,426.38 265.88,428.40 265.00,425.57 L265.00,259.00 L193.00,259.00 L193.00,236.00 Z" fill="#3B3134" fill-rule="nonzero"/><g><path d="M169.50,1.00 L170.00,1.00 L170.00,16.06 L169.84,18.00 L169.75,23.14 C168.97,23.79 153.06,23.99 99.00,24.00 C98.22,24.00 98.00,25.14 98.00,29.06 L98.00,175.00 L98.00,179.00 L98.00,182.00 L98.00,186.00 L98.03,186.75 L98.00,188.00 L98.00,190.00 L72.75,190.00 L72.24,25.25 C71.53,24.13 63.75,24.00 -0.00,24.00 L0.00,0.00 L1.00,-0.00 C1.00,0.83 29.42,1.00 169.50,1.00 Z" fill="#CB5435" fill-rule="nonzero"/><path d="M98.00,190.00 C98.00,190.82 93.37,191.00 85.12,191.00 L72.24,191.00 L72.24,25.25 L72.75,190.00 L98.00,190.00 Z" fill="#864A37" fill-rule="nonzero"/><path d="M170.00,16.06 L170.00,1.00 C170.81,1.00 171.00,3.74 171.00,8.22 C171.00,12.49 170.80,15.57 170.00,16.06 Z" fill="#3B3134" fill-rule="nonzero"/><path d="M169.75,23.14 L169.84,18.00 C170.78,18.00 171.00,18.95 171.00,20.57 C171.00,22.29 170.79,23.14 169.75,23.14 Z" fill="#3B3134" fill-rule="nonzero"/><path d="M99.00,24.00 C99.00,27.44 98.78,28.58 98.00,29.06 C98.00,25.14 98.22,24.00 99.00,24.00 Z" fill="#3B3134" fill-rule="nonzero"/><path d="M98.00,179.00 L98.00,175.00 C98.78,175.00 99.00,175.90 99.00,177.00 C99.00,178.10 98.78,179.00 98.00,179.00 Z" fill="#3B3134" fill-rule="nonzero"/><path d="M98.00,186.00 L98.00,182.00 C98.78,182.00 99.00,182.90 99.00,184.00 C99.00,185.10 98.78,186.00 98.00,186.00 Z" fill="#3B3134" fill-rule="nonzero"/><path d="M98.00,188.00 L98.03,186.75 C98.58,186.51 100.25,188.36 98.00,188.00 Z" fill="#3B3134" fill-rule="nonzero"/><path d="M1.00,-0.00 L169.50,-0.00 L169.50,1.00 C29.42,1.00 1.00,0.83 1.00,-0.00 Z" fill="#864A37" fill-rule="nonzero"/></g><g><path d="M268.98,495.40 L269.03,658.00 L268.74,660.94 L243.75,661.00 L243.16,497.25 C243.46,496.22 241.66,495.51 240.81,494.84 L234.75,494.12 L171.00,494.00 L171.14,490.75 C171.79,485.95 171.58,476.16 171.28,471.75 C226.77,471.48 285.53,471.00 340.52,472.12 L340.25,493.75 C318.07,494.10 291.49,494.03 269.36,494.26 C269.36,494.26 268.98,495.40 268.98,495.40 Z" fill="#CB5435" fill-rule="nonzero"/><g><path d="M341.05,472.99 L341.01,494.06 C340.55,494.81 326.66,494.98 305.77,494.95 C283.62,494.92 270.93,495.09 270.12,495.89 L268.98,495.40 C268.98,495.40 269.36,494.26 269.36,494.26 C291.49,494.03 318.07,494.10 340.25,493.75 L340.52,472.12 C285.53,471.00 226.77,471.48 171.28,471.75 C171.58,476.16 171.79,485.95 171.14,490.75 L171.14,471.00 L255.84,471.01 C339.71,471.01 340.54,471.02 341.05,472.99 Z" fill="#864A37" fill-rule="nonzero"/><path d="M270.12,495.89 C270.02,628.85 269.83,658.00 269.03,658.00 L268.98,495.40 L270.12,495.89 Z" fill="#3B3134" fill-rule="nonzero"/><path d="M341.01,494.06 L341.05,472.99 C341.81,472.99 342.00,477.12 342.00,483.22 C342.00,489.48 341.81,493.57 341.01,494.06 Z" fill="#3B3134" fill-rule="nonzero"/></g><path d="M268.74,660.94 C268.15,661.89 264.42,662.05 256.12,662.03 C247.44,662.01 244.06,661.84 243.67,661.39 C243.31,660.98 243.15,635.57 243.16,497.25 L243.75,661.00 L268.74,660.94 Z" fill="#864A37" fill-rule="nonzero"/><path d="M240.81,494.84 C182.91,494.97 171.00,494.83 171.00,494.00 L234.75,494.12 L240.81,494.84 Z" fill="#864A37" fill-rule="nonzero"/></g><path d="M756.00,236.00 L781.00,236.00 L781.00,425.57 L779.57,427.00 L756.00,427.00 L756.00,236.00 Z" fill="#3B3134" fill-rule="nonzero"/><g><path d="M777.09,657.25 L777.16,655.75 C778.11,595.90 776.94,530.98 777.75,471.51 L801.99,472.33 L802.02,660.75 C801.62,661.07 777.97,661.18 777.56,660.78 C777.98,660.68 777.24,657.60 777.09,657.25 Z" fill="#CB5435" fill-rule="nonzero"/><path d="M777.16,655.75 L777.16,471.00 L790.08,471.00 L803.00,471.00 L803.00,566.50 L803.00,662.00 L790.04,662.00 L777.09,662.00 L777.09,657.25 C777.24,657.60 777.98,660.68 777.56,660.78 C777.97,661.18 801.62,661.07 802.02,660.75 L801.99,472.33 L777.75,471.51 C776.94,530.98 778.11,595.90 777.16,655.75 Z" fill="#864A37" fill-rule="nonzero"/></g><path d="M922.56,665.00 L917.00,665.00 L917.00,663.94 C918.56,664.32 922.37,663.25 922.56,665.00 Z" fill="#864A37" fill-rule="nonzero"/><path d="M1022.89,584.95 C1023.54,584.59 1022.00,578.99 1024.00,580.00 L1024.00,585.00 L1022.89,584.95 Z" fill="#864A37" fill-rule="nonzero"/><path d="M947.99,663.76 L948.00,665.00 L944.50,665.00 C943.65,663.63 948.60,663.15 947.99,663.76 Z" fill="#864A37" fill-rule="nonzero"/><path d="M1024.00,549.00 L1024.00,552.50 C1023.23,552.50 1023.01,551.71 1023.05,549.00 L1024.00,549.00 Z" fill="#864A37" fill-rule="nonzero"/><path d="M709.25,494.53 L706.75,492.13 L709.25,494.53 Z" fill="#864A37" fill-rule="nonzero"/><path d="M718.00,504.55 L716.04,501.96 C717.15,501.35 717.79,504.27 718.00,504.55 Z" fill="#864A37" fill-rule="nonzero"/><path d="M709.07,589.02 L708.03,592.25 C708.01,589.73 708.24,589.00 709.07,589.02 Z" fill="#864A37" fill-rule="nonzero"/><path d="M663.22,636.54 L659.28,637.72 C659.56,636.11 661.65,636.49 663.22,636.54 Z" fill="#864A37" fill-rule="nonzero"/><path d="M540.00,190.11 C540.00,190.81 510.29,191.00 469.50,191.00 L399.00,191.00 L399.00,-0.00 L540.00,-0.00 L540.00,1.00 L399.50,1.00 L399.50,190.00 L540.00,190.11 Z" fill="#864A37" fill-rule="nonzero"/><path d="M540.00,1.00 L540.00,6.00 L540.00,8.00 L539.95,18.10 C540.54,20.11 540.28,22.30 539.59,24.22 C502.55,23.64 462.60,24.12 426.25,24.25 C425.15,24.43 425.01,30.70 424.99,52.96 C424.97,72.88 425.12,81.41 426.02,81.11 L516.02,81.14 L515.88,93.17 L515.75,105.20 L426.25,105.25 C425.11,105.03 424.98,111.32 424.97,136.24 C424.97,158.04 425.12,167.42 426.02,167.11 C515.66,167.02 539.56,167.20 540.01,167.94 L540.00,171.00 L540.00,174.00 L540.00,189.00 L540.00,190.11 L399.50,190.00 L399.50,1.00 L540.00,1.00 Z" fill="#CB5435" fill-rule="nonzero"/><path d="M426.25,105.25 L426.02,167.11 C425.12,167.42 424.97,158.04 424.97,136.24 C424.98,111.32 425.11,105.03 426.25,105.25 Z" fill="#3B3134" fill-rule="nonzero"/><path d="M426.25,24.25 L426.02,81.11 C425.12,81.41 424.97,72.88 424.99,52.96 C425.01,30.70 425.15,24.43 426.25,24.25 Z" fill="#3B3134" fill-rule="nonzero"/><path d="M540.00,189.00 L540.00,174.00 C540.81,174.00 541.00,176.83 541.00,181.50 C541.00,186.17 540.81,189.00 540.00,189.00 Z" fill="#3B3134" fill-rule="nonzero"/><path d="M539.95,18.10 L540.00,8.00 C541.65,5.82 541.33,20.16 539.95,18.10 Z" fill="#3B3134" fill-rule="nonzero"/><path d="M540.00,6.00 L540.00,1.00 C540.77,1.00 541.00,2.12 541.00,3.50 C541.00,4.88 540.77,6.00 540.00,6.00 Z" fill="#3B3134" fill-rule="nonzero"/><path d="M540.00,171.00 L540.01,167.94 C540.85,167.47 542.01,171.55 540.00,171.00 Z" fill="#3B3134" fill-rule="nonzero"/></svg>